:SAMPLES-PER-SECOND 30
:FULLY-SPECIFIED
:DEGREES
551
root  -6.29583 36.9104 6.34939 -50.002 -75.9721 42.3256
RightUpLeg  -23.5257 -3.21331 -24.531
RightLeg  35.5457 -24.7187 -18.0119
RightFoot  15.6652 -1.61538 7.21047
RightToes  -5.28226e-011 1.30204e-014 -6.03759e-014
Spine  8.0491 -2.11389 -10.9299
Spine1  5.88579 -3.45151 0.10184
HEad  -14.2882 1.13009 -4.24102
LeftShoulder1  2.98714 -7.47293 -20.8241
LeftArm  5.07653 -7.94844 -59.1963
LeftForeArm  -27.4625 -31.5533 -8.26188
LeftHand  0.428082 7.02188 29.7934
RightShoulder  1.71233 2.96542 20.1211
RightArm  -21.135 0.0464958 56.191
RightForeArm  -11.9665 52.744 15.761
RightHand  -1.16584 -1.27681 -32.2071
LeftUpLeg  8.61217 -0.223014 5.0578
LeftLeg  23.7569 -1.81495 0.131752
LeftFoot  -22.4332 -1.66075 -18.3395
LeftToes  -2.42178e-010 -1.66495e-011 -2.88221e-011
552
root  -5.34026 36.9673 7.01715 -57.1846 -78.1736 48.2977
RightUpLeg  -24.2412 -1.93766 -24.4992
RightLeg  33.1531 -21.8207 -14.8124
RightFoot  20.1004 -1.48723 5.76924
RightToes  -5.28226e-011 1.30204e-014 -6.03759e-014
Spine  9.25179 -1.4567 -10.4474
Spine1  6.93495 -2.9694 0.198645
HEad  -17.2115 2.223 -4.65352
LeftShoulder1  3.09531 -7.98969 -20.5201
LeftArm  15.8652 -9.43583 -63.6708
LeftForeArm  -16.0282 -35.7063 -8.9394
LeftHand  -0.150774 4.69651 24.7925
RightShoulder  1.74386 3.27185 19.3269
RightArm  -7.33801 4.42703 61.1797
RightForeArm  -1.62841 55.4456 16.6499
RightHand  -0.88953 -1.02703 -23.4418
LeftUpLeg  8.23228 0.296416 4.32385
LeftLeg  25.9098 -0.23265 0.469088
LeftFoot  -23.3599 -1.71019 -17.4526
LeftToes  -2.42178e-010 -1.66495e-011 -2.88221e-011
553
root  -4.49567 37.0015 7.52745 -64.9854 -80.4119 54.6611
RightUpLeg  -26.0808 -2.18873 -23.2468
RightLeg  36.5939 -16.8838 -13.227
RightFoot  20.259 -1.24506 4.89458
RightToes  -5.28226e-011 1.30204e-014 -6.03759e-014
Spine  10.8226 -0.744529 -9.75513
Spine1  7.81287 -2.51473 0.568565
HEad  -19.7681 3.06764 -5.22066
LeftShoulder1  3.23957 -8.57422 -20.4036
LeftArm  20.9983 -10.02 -66.5119
LeftForeArm  2.39739 -42.8412 -10.2334
LeftHand  -0.72099 0.772079 18.6559
RightShoulder  1.799 3.59937 18.8812
RightArm  5.10986 7.56336 64.9409
RightForeArm  15.694 61.3988 19.6424
RightHand  -0.603713 -0.87335 -15.4331
LeftUpLeg  7.83529 0.65858 4.23174
LeftLeg  28.3888 1.44915 1.20824
LeftFoot  -23.9108 -1.70954 -16.7155
LeftToes  -2.42178e-010 -1.66495e-011 -2.88221e-011
554
root  -3.74805 37.0353 7.88191 -72.2426 -82.0579 59.8688
RightUpLeg  -27.731 -2.94492 -21.9447
RightLeg  46.1059 -13.7847 -15.2276
RightFoot  17.0396 -1.12988 4.94285
RightToes  -5.28226e-011 1.30204e-014 -6.03759e-014
Spine  12.8477 -0.0235544 -9.25561
Spine1  9.04182 -2.23844 1.11342
HEad  -22.2399 3.42474 -5.3359
LeftShoulder1  3.27385 -8.81914 -20.1299
LeftArm  24.6422 -10.7454 -67.9235
LeftForeArm  23.9463 -51.8549 -12.4412
LeftHand  -1.08724 -4.56789 12.799
RightShoulder  1.84623 3.90003 18.4558
RightArm  15.2869 9.20028 67.7258
RightForeArm  45.451 70.7083 28.3632
RightHand  -0.376175 -0.240116 -8.70056
LeftUpLeg  8.31621 0.968916 4.42064
LeftLeg  30.2344 2.76012 2.12167
LeftFoot  -24.0104 -1.67516 -16.2877
LeftToes  -2.42178e-010 -1.66495e-011 -2.88221e-011
555
root  -3.12158 37.0659 8.09395 -76.1873 -82.8933 61.6674
RightUpLeg  -28.38 -3.34804 -21.7102
RightLeg  57.352 -11.6301 -19.1233
RightFoot  13.8812 -1.04053 5.07125
RightToes  -5.28226e-011 1.30204e-014 -6.03759e-014
Spine  14.6879 0.557068 -8.89021
Spine1  10.3131 -2.00395 1.00073
HEad  -24.3612 3.07864 -4.53987
LeftShoulder1  3.10391 -8.5934 -19.1492
LeftArm  29.7456 -11.8831 -68.714
LeftForeArm  45.3057 -61.8271 -16.7458
LeftHand  -1.18631 -7.21872 11.1728
RightShoulder  1.87044 4.07957 18.1598
RightArm  22.7943 9.05841 69.2697
RightForeArm  100.025 80.2964 62.0534
RightHand  -0.24326 1.49072 -4.24015
LeftUpLeg  9.26829 1.06495 4.6706
LeftLeg  31.2123 3.27221 2.5261
LeftFoot  -23.7093 -1.58685 -15.8646
LeftToes  -2.42178e-010 -1.66495e-011 -2.88221e-011
556
root  -2.64506 37.1085 8.20203 -74.45 -83.1704 58.6715
RightUpLeg  -28.3888 -3.65666 -22.5675
RightLeg  66.1553 -8.25727 -20.1036
RightFoot  12.6056 -0.80898 4.2255
RightToes  -5.28226e-011 1.30204e-014 -6.03759e-014
Spine  15.713 0.775574 -8.12915
Spine1  10.8254 -1.63089 -0.361774
HEad  -25.448 2.10358 -2.77103
LeftShoulder1  2.85029 -8.27558 -17.5774
LeftArm  35.6278 -12.7046 -68.9029
LeftForeArm  65.6296 -71.6037 -26.2883
LeftHand  -1.24623 -6.15078 12.8632
RightShoulder  1.95495 4.26199 18.7064
RightArm  27.59 6.85961 68.3539
RightForeArm  -175.224 78.5561 136.117
RightHand  -0.201592 2.54176 -3.14229
LeftUpLeg  9.50724 1.06458 4.98705
LeftLeg  31.6777 2.9759 2.37079
LeftFoot  -23.1982 -1.45795 -15.2977
LeftToes  -2.42178e-010 -1.66495e-011 -2.88221e-011
557
root  -2.31928 37.1634 8.22906 -69.3943 -83.3382 53.4529
RightUpLeg  -27.948 -3.98646 -23.9234
RightLeg  71.2839 -4.97799 -16.8842
RightFoot  13.2339 -0.51964 2.8172
RightToes  -5.28226e-011 1.30204e-014 -6.03759e-014
Spine  15.8463 0.751304 -6.84101
Spine1  10.5538 -1.06924 -2.4791
HEad  -25.4812 0.821055 -0.714171
LeftShoulder1  2.70506 -8.21494 -16.3669
LeftArm  40.2388 -12.5831 -67.7345
LeftForeArm  93.1298 -79.302 -49.9008
LeftHand  -1.19157 -4.04166 14.8585
RightShoulder  2.10385 4.52127 19.8361
RightArm  29.3116 3.09547 64.9993
RightForeArm  -151.803 69.5698 158.588
RightHand  -0.377093 3.13521 -5.30553
LeftUpLeg  8.79564 0.871115 5.397
LeftLeg  31.9985 2.70785 2.21626
LeftFoot  -22.7207 -1.36474 -14.9895
LeftToes  -2.42178e-010 -1.66495e-011 -2.88221e-011
558
root  -2.09528 37.221 8.16991 -65.1438 -83.7297 49.5312
RightUpLeg  -26.7006 -4.01178 -25.3728
RightLeg  72.7866 -3.36009 -13.122
RightFoot  16.1501 -0.52103 2.56903
RightToes  -5.28226e-011 1.30204e-014 -6.03759e-014
Spine  15.439 0.870422 -5.58055
Spine1  10.1786 -0.431674 -4.17145
HEad  -25.1693 -0.404334 0.512467
LeftShoulder1  2.71514 -8.28013 -16.3193
LeftArm  42.3821 -11.4695 -64.8696
LeftForeArm  140.091 -81.7663 -96.6766
LeftHand  -1.12849 -3.24675 15.3487
RightShoulder  2.16763 4.64198 20.261
RightArm  28.0753 -1.11797 61
RightForeArm  -148.821 63.0358 164.407
RightHand  -0.693081 4.0477 -8.78998
LeftUpLeg  7.88708 0.510771 5.95738
LeftLeg  32.1387 2.86875 2.33492
LeftFoot  -22.2741 -1.32509 -15.1632
LeftToes  -2.42178e-010 -1.66495e-011 -2.88221e-011
559
root  -1.91147 37.3152 8.03085 -61.7607 -84.3777 46.498
RightUpLeg  -24.4457 -3.68281 -26.755
RightLeg  70.7204 -3.37675 -11.4878
RightFoot  20.5014 -0.906601 3.67485
RightToes  -5.28226e-011 1.30204e-014 -6.03759e-014
Spine  14.8981 1.16667 -4.72352
Spine1  9.98743 0.0725736 -4.79887
HEad  -24.9472 -1.29739 0.453221
LeftShoulder1  2.74431 -8.12977 -16.9174
LeftArm  42.2967 -9.29034 -61.2442
LeftForeArm  170.193 -79.6825 -127.786
LeftHand  -1.14681 -3.92038 14.5239
RightShoulder  2.06568 4.44372 19.588
RightArm  25.1593 -5.02763 57.4825
RightForeArm  -151.648 59.9679 166.037
RightHand  -0.86158 3.94269 -10.9829
LeftUpLeg  7.32855 0.0563894 6.74163
LeftLeg  31.744 3.20331 2.52733
LeftFoot  -21.5678 -1.26857 -15.5355
LeftToes  -2.42178e-010 -1.66495e-011 -2.88221e-011
560
root  -1.75352 37.4747 7.81964 -56.5508 -85.0824 41.7169
RightUpLeg  -21.3838 -3.32151 -27.9008
RightLeg  65.7076 -4.45044 -11.2778
RightFoot  23.2602 -1.31774 4.76444
RightToes  -5.28226e-011 1.30204e-014 -6.03759e-014
Spine  14.2581 1.50804 -4.34875
Spine1  9.85306 0.347235 -4.24011
HEad  -24.7548 -1.87694 -0.43687
LeftShoulder1  2.70377 -7.81868 -17.2309
LeftArm  40.735 -5.98778 -58.1623
LeftForeArm  175.918 -78.1083 -136.167
LeftHand  -1.14085 -4.51064 13.6102
RightShoulder  1.87533 4.00485 18.4968
RightArm  21.7186 -8.5928 54.0956
RightForeArm  -159.48 60.0568 165.38
RightHand  -0.743916 2.22913 -11.5
LeftUpLeg  7.00776 -0.434898 7.77255
LeftLeg  30.6626 3.50915 2.63165
LeftFoot  -20.4679 -1.15354 -15.8966
LeftToes  -2.42178e-010 -1.66495e-011 -2.88221e-011
